<svg width="64" height="64" viewBox="0 0 64 64" fill="none" xmlns="http://www.w3.org/2000/svg">
<mask id="mask0_56813_1214" style="mask-type:alpha" maskUnits="userSpaceOnUse" x="0" y="0" width="64" height="64">
<rect width="64" height="64" fill="#D9D9D9"/>
</mask>
<g mask="url(#mask0_56813_1214)">
<path d="M28.785 40.9738L40.4003 33.5125C40.971 33.1503 41.2563 32.6469 41.2563 32.0025C41.2563 31.3581 40.971 30.8529 40.4003 30.4872L28.785 23.0258C28.1868 22.6156 27.573 22.5827 26.9437 22.9272C26.3148 23.2716 26.0003 23.8087 26.0003 24.5385V39.4612C26.0003 40.1909 26.3148 40.7281 26.9437 41.0725C27.573 41.4169 28.1868 41.3841 28.785 40.9738ZM32.005 57.3332C28.501 57.3332 25.2074 56.6683 22.1243 55.3385C19.0412 54.0087 16.3594 52.2041 14.079 49.9245C11.7985 47.6449 9.99299 44.9643 8.66232 41.8825C7.3321 38.8007 6.66699 35.5081 6.66699 32.0045C6.66699 28.5005 7.33188 25.2069 8.66166 22.1238C9.99144 19.0407 11.7961 16.3589 14.0757 14.0785C16.3552 11.7981 19.0359 9.9925 22.1177 8.66184C25.1994 7.33161 28.4921 6.6665 31.9957 6.6665C35.4997 6.6665 38.7932 7.33139 41.8763 8.66117C44.9594 9.99095 47.6412 11.7956 49.9217 14.0752C52.2021 16.3547 54.0077 19.0354 55.3383 22.1172C56.6685 25.1989 57.3337 28.4916 57.3337 31.9952C57.3337 35.4992 56.6688 38.7927 55.339 41.8758C54.0092 44.9589 52.2045 47.6407 49.925 49.9212C47.6454 52.2016 44.9648 54.0072 41.883 55.3378C38.8012 56.6681 35.5085 57.3332 32.005 57.3332Z" fill="#0090FE"/>
</g>
</svg>
