<svg width="186" height="28" viewBox="0 0 186 28" fill="none" xmlns="http://www.w3.org/2000/svg">
<path d="M180.099 28.0003C179.107 28.0003 178.125 27.8156 177.153 27.4461C176.2 27.0767 175.374 26.5614 174.674 25.9003L176.161 23.9753C176.803 24.5003 177.454 24.8795 178.115 25.1128C178.777 25.3461 179.477 25.4628 180.215 25.4628C180.993 25.4628 181.567 25.2975 181.936 24.967C182.306 24.6364 182.49 24.2281 182.49 23.742C182.49 23.3531 182.345 23.0225 182.053 22.7503C181.781 22.4781 181.421 22.2448 180.974 22.0503C180.527 21.8559 180.031 21.6614 179.486 21.467C178.786 21.2142 178.135 20.9128 177.532 20.5628C176.929 20.1934 176.434 19.7462 176.045 19.2212C175.675 18.6767 175.49 18.0253 175.49 17.267C175.49 16.0031 175.957 14.9725 176.891 14.1753C177.824 13.3781 179.088 12.9795 180.682 12.9795C181.654 12.9795 182.549 13.1448 183.365 13.4753C184.182 13.7864 184.882 14.1948 185.465 14.7003L183.978 16.5962C183.472 16.2267 182.957 15.9545 182.432 15.7795C181.907 15.6045 181.353 15.517 180.77 15.517C180.05 15.517 179.515 15.6725 179.165 15.9837C178.815 16.2948 178.64 16.6642 178.64 17.092C178.64 17.442 178.747 17.7434 178.961 17.9962C179.195 18.2295 179.525 18.4434 179.953 18.6378C180.381 18.8128 180.896 18.9975 181.499 19.192C182.238 19.4448 182.928 19.7559 183.57 20.1253C184.211 20.4753 184.717 20.9323 185.086 21.4962C185.475 22.0406 185.67 22.7309 185.67 23.567C185.67 24.3836 185.456 25.1323 185.028 25.8128C184.6 26.4739 183.968 27.0086 183.132 27.417C182.315 27.8059 181.304 28.0003 180.099 28.0003Z" fill="white"/>
<path d="M167.475 28.0003C166.133 28.0003 164.918 27.7086 163.829 27.1253C162.76 26.5225 161.914 25.667 161.292 24.5586C160.67 23.4309 160.358 22.0698 160.358 20.4753C160.358 18.9198 160.679 17.5878 161.321 16.4795C161.963 15.3517 162.789 14.4864 163.8 13.8837C164.811 13.2809 165.881 12.9795 167.008 12.9795C168.311 12.9795 169.4 13.2712 170.275 13.8545C171.15 14.4378 171.801 15.2448 172.229 16.2753C172.676 17.2864 172.9 18.4531 172.9 19.7753C172.9 20.0864 172.881 20.3878 172.842 20.6795C172.822 20.9712 172.783 21.2531 172.725 21.5253H162.867V18.9587H169.925C169.925 17.9281 169.692 17.1212 169.225 16.5378C168.758 15.935 168.039 15.6337 167.067 15.6337C166.522 15.6337 165.988 15.7795 165.463 16.0712C164.957 16.3628 164.529 16.8587 164.179 17.5587C163.849 18.2587 163.683 19.2309 163.683 20.4753C163.683 21.6031 163.878 22.5267 164.267 23.2461C164.656 23.9461 165.171 24.4711 165.813 24.8211C166.454 25.1517 167.145 25.317 167.883 25.317C168.506 25.317 169.089 25.2295 169.633 25.0545C170.197 24.8795 170.722 24.6364 171.208 24.3253L172.375 26.4836C171.714 26.9503 170.956 27.3198 170.1 27.592C169.264 27.8642 168.389 28.0003 167.475 28.0003Z" fill="white"/>
<path d="M145 27.6503V13.3295H147.771L148.004 15.2545H148.121C148.762 14.6323 149.462 14.0975 150.221 13.6503C150.979 13.2031 151.844 12.9795 152.817 12.9795C154.353 12.9795 155.471 13.4753 156.171 14.467C156.871 15.4587 157.221 16.8587 157.221 18.667V27.6503H153.867V19.1045C153.867 17.9184 153.692 17.0823 153.342 16.5962C152.992 16.11 152.418 15.867 151.621 15.867C150.999 15.867 150.444 16.0225 149.958 16.3337C149.492 16.6253 148.957 17.0628 148.354 17.6462V27.6503H145Z" fill="white"/>
<path d="M137.367 27.65V13.3292H140.721V27.65H137.367ZM139.029 10.8208C138.446 10.8208 137.96 10.6458 137.571 10.2958C137.201 9.94583 137.017 9.47916 137.017 8.89583C137.017 8.3125 137.201 7.85555 137.571 7.525C137.96 7.175 138.446 7 139.029 7C139.632 7 140.118 7.175 140.487 7.525C140.857 7.85555 141.042 8.3125 141.042 8.89583C141.042 9.47916 140.857 9.94583 140.487 10.2958C140.118 10.6458 139.632 10.8208 139.029 10.8208Z" fill="white"/>
<path d="M121.103 27.6502V7.05859H124.457V12.3669L124.34 15.1378C124.943 14.5739 125.614 14.078 126.353 13.6503C127.091 13.203 127.947 12.9794 128.919 12.9794C130.455 12.9794 131.573 13.4753 132.273 14.4669C132.973 15.4586 133.323 16.8586 133.323 18.6669V27.6502H129.969V19.1044C129.969 17.9183 129.794 17.0822 129.444 16.5961C129.094 16.11 128.521 15.8669 127.723 15.8669C127.101 15.8669 126.547 16.0225 126.061 16.3336C125.594 16.6253 125.059 17.0627 124.457 17.6461V27.6502H121.103Z" fill="white"/>
<path d="M113.667 28.0003C112.345 28.0003 111.159 27.7086 110.109 27.1253C109.059 26.5225 108.223 25.667 107.6 24.5586C106.998 23.4309 106.696 22.0795 106.696 20.5045C106.696 18.91 107.027 17.5587 107.688 16.4503C108.349 15.3225 109.224 14.467 110.313 13.8837C111.421 13.2809 112.607 12.9795 113.871 12.9795C114.785 12.9795 115.582 13.135 116.263 13.4462C116.963 13.7378 117.566 14.117 118.071 14.5837L116.467 16.6837C116.156 16.392 115.796 16.1587 115.388 15.9837C114.999 15.8087 114.552 15.7212 114.046 15.7212C113.288 15.7212 112.617 15.9253 112.034 16.3337C111.45 16.7225 110.984 17.2767 110.634 17.9962C110.303 18.6962 110.138 19.5323 110.138 20.5045C110.138 21.4573 110.303 22.2934 110.634 23.0128C110.964 23.7128 111.412 24.267 111.975 24.6753C112.559 25.0642 113.23 25.2586 113.988 25.2586C114.552 25.2586 115.077 25.1517 115.563 24.9378C116.069 24.7239 116.516 24.4517 116.905 24.1211L118.275 26.192C117.673 26.7364 116.973 27.1739 116.175 27.5045C115.398 27.835 114.562 28.0003 113.667 28.0003Z" fill="white"/>
<path d="M96.062 28.0003C95.2259 28.0003 94.487 27.8253 93.8454 27.4753C93.2037 27.1253 92.6982 26.6392 92.3287 26.017C91.9787 25.3753 91.8037 24.6364 91.8037 23.8003C91.8037 22.1864 92.4745 20.9712 93.8162 20.1545C95.1773 19.3184 97.3259 18.7448 100.262 18.4337C100.243 17.9475 100.145 17.5003 99.9704 17.092C99.8148 16.6837 99.5426 16.3628 99.1537 16.1295C98.7843 15.8767 98.2787 15.7503 97.637 15.7503C96.937 15.7503 96.2468 15.8767 95.5662 16.1295C94.9051 16.3823 94.2537 16.7031 93.612 17.092L92.387 14.817C92.912 14.4864 93.4857 14.185 94.1079 13.9128C94.7301 13.6212 95.3912 13.3975 96.0912 13.242C96.7912 13.067 97.5204 12.9795 98.2787 12.9795C99.4648 12.9795 100.447 13.2225 101.225 13.7087C102.022 14.1753 102.615 14.8753 103.004 15.8087C103.412 16.7225 103.616 17.8503 103.616 19.192V27.6503H100.845L100.612 26.0753H100.495C99.8343 26.6198 99.144 27.0767 98.4245 27.4461C97.7051 27.8156 96.9176 28.0003 96.062 28.0003ZM97.112 25.2586C97.6954 25.2586 98.2301 25.142 98.7162 24.9086C99.2218 24.6559 99.737 24.2864 100.262 23.8003V20.767C98.9593 20.9225 97.9287 21.1267 97.1704 21.3795C96.412 21.6323 95.8676 21.9434 95.537 22.3128C95.2259 22.6628 95.0704 23.0809 95.0704 23.567C95.0704 24.1698 95.2648 24.6073 95.6537 24.8795C96.0426 25.1323 96.5287 25.2586 97.112 25.2586Z" fill="white"/>
<path d="M71.1504 27.6502V8.5752H75.2046L78.4712 17.9085C78.6851 18.5113 78.8796 19.1141 79.0546 19.7169C79.2296 20.3002 79.4046 20.9419 79.5796 21.6418H79.6962C79.8712 20.9419 80.0365 20.3002 80.1921 19.7169C80.3671 19.1141 80.5518 18.5113 80.7462 17.9085L84.0129 8.5752H88.0379V27.6502H84.9171V18.9585C84.9171 18.3557 84.9365 17.6655 84.9754 16.8877C85.0337 16.1099 85.1018 15.3419 85.1796 14.5835C85.2573 13.8057 85.3351 13.1252 85.4129 12.5419H85.2962L83.7796 17.3835L80.6879 25.9002H78.4129L75.3212 17.3835L73.8629 12.5419H73.7462C73.824 13.1252 73.8921 13.8057 73.9504 14.5835C74.0282 15.3419 74.0865 16.1099 74.1254 16.8877C74.1837 17.6655 74.2129 18.3557 74.2129 18.9585V27.6502H71.1504Z" fill="white"/>
<path d="M56.3911 28.0003C55.0494 28.0003 53.8341 27.7086 52.7452 27.1253C51.6758 26.5225 50.83 25.667 50.2077 24.5586C49.5855 23.4309 49.2744 22.0698 49.2744 20.4753C49.2744 18.9198 49.5952 17.5878 50.2369 16.4795C50.8786 15.3517 51.705 14.4864 52.7161 13.8837C53.7272 13.2809 54.7966 12.9795 55.9244 12.9795C57.2272 12.9795 58.3161 13.2712 59.1911 13.8545C60.0661 14.4378 60.7175 15.2448 61.1452 16.2753C61.5925 17.2864 61.8161 18.4531 61.8161 19.7753C61.8161 20.0864 61.7966 20.3878 61.7577 20.6795C61.7383 20.9712 61.6994 21.2531 61.6411 21.5253H51.7827V18.9587H58.8411C58.8411 17.9281 58.6077 17.1212 58.1411 16.5378C57.6744 15.935 56.955 15.6337 55.9827 15.6337C55.4383 15.6337 54.9036 15.7795 54.3786 16.0712C53.873 16.3628 53.4452 16.8587 53.0952 17.5587C52.7647 18.2587 52.5994 19.2309 52.5994 20.4753C52.5994 21.6031 52.7939 22.5267 53.1827 23.2461C53.5716 23.9461 54.0869 24.4711 54.7286 24.8211C55.3702 25.1517 56.0605 25.317 56.7994 25.317C57.4216 25.317 58.005 25.2295 58.5494 25.0545C59.1133 24.8795 59.6383 24.6364 60.1244 24.3253L61.2911 26.4836C60.63 26.9503 59.8716 27.3198 59.0161 27.592C58.18 27.8642 57.305 28.0003 56.3911 28.0003Z" fill="white"/>
<path d="M38.288 27.9999C36.7518 27.9999 35.6338 27.5041 34.9338 26.5124C34.2338 25.5208 33.8838 24.1208 33.8838 22.3124V13.3291H37.238V21.8749C37.238 23.061 37.413 23.8971 37.763 24.3833C38.113 24.8694 38.6768 25.1124 39.4546 25.1124C40.0768 25.1124 40.6213 24.9569 41.088 24.6458C41.5741 24.3346 42.0893 23.8291 42.6338 23.1291V13.3291H45.988V27.6499H43.2463L42.9838 25.5499H42.8963C42.2741 26.2888 41.5935 26.8819 40.8546 27.3291C40.1157 27.7763 39.2602 27.9999 38.288 27.9999Z" fill="white"/>
<path d="M29.378 27.9419C28.5808 27.9419 27.9391 27.7863 27.453 27.4752C26.9863 27.1447 26.6461 26.678 26.4322 26.0752C26.2183 25.4725 26.1113 24.753 26.1113 23.9169V7.05859H29.4655V24.0919C29.4655 24.5197 29.5433 24.8114 29.6988 24.9669C29.8544 25.1225 30.0294 25.2002 30.2238 25.2002C30.3016 25.2002 30.3697 25.2002 30.428 25.2002C30.5058 25.1808 30.603 25.1614 30.7197 25.1419L31.1572 27.6502C30.9627 27.728 30.7099 27.7961 30.3988 27.8544C30.1072 27.9127 29.7669 27.9419 29.378 27.9419Z" fill="white"/>
<path fill-rule="evenodd" clip-rule="evenodd" d="M0 0H12.3566C16.1717 0 19.3007 3.1197 19.3007 6.93475C19.3007 9.11477 18.2765 11.0599 16.6979 12.3378C19.2538 13.7661 21.0016 16.5006 21.0016 19.6297C21.0016 24.2152 17.2429 27.9645 12.6573 27.9645C9.71615 27.9645 2.93178 28.0397 0 27.9645V24.7603C0.460431 24.9576 1.00546 25.061 1.63504 25.061C2.78144 25.061 3.93723 25.061 5.0836 25.061C5.69436 25.061 5.72256 24.7509 5.60981 24.2153C5.29972 22.7118 4.4634 22.787 2.4995 22.4111C3.51434 19.4888 4.26606 16.2751 6.66224 14.7623C8.09993 13.8508 10.2048 13.2682 12.3003 13.3903C13.005 13.4373 13.5688 13.381 14.1326 13.0333C14.7434 12.6574 15.4011 11.8963 15.6925 11.3137C16.3784 9.98875 14.5742 9.30278 13.691 8.78599C12.9111 6.80332 12.3754 6.72811 10.5713 6.07976C9.7162 3.92789 7.95898 2.97883 7.22608 5.75089C4.84871 4.63268 4.16278 4.17225 4.22356e-05 5.14013L0 0ZM12.7889 8.59794C11.9244 8.29723 11.6613 8.33486 10.7404 8.31605C12.0184 8.99259 11.6049 8.97382 12.7889 8.59794ZM4.67952 18.8027C5.57218 19.2725 6.17361 19.592 7.06627 20.0619C7.67704 20.3908 7.65827 20.5975 7.63945 21.2365C7.62064 21.6969 7.61126 22.1856 7.65827 22.3923C7.73343 22.7118 9.8571 23.6421 10.3363 22.4111C11.0129 20.6821 11.821 19.2632 10.2705 17.9853C9.96042 17.7316 8.07169 16.1905 7.17902 15.42C6.08906 16.0213 5.3091 17.0362 4.67952 18.8027Z" fill="white"/>
</svg>