<svg width="228" height="24" viewBox="0 0 228 24" fill="none" xmlns="http://www.w3.org/2000/svg">
<g clip-path="url(#clip0_56951_2116)">
<path d="M59.3115 12.9022C59.9504 12.5136 60.4701 12.0508 60.8645 11.5076C61.456 10.6927 61.7517 9.74141 61.7517 8.65371C61.7517 7.72192 61.5229 6.86809 61.0677 6.09098C60.6113 5.3151 59.9419 4.68904 59.0596 4.21279C58.1772 3.73776 57.0757 3.49902 55.7577 3.49902H48.1924V23.7073H55.9901C57.4056 23.7073 58.6032 23.4503 59.5829 22.9351C60.5626 22.4211 61.3136 21.7365 61.8381 20.8827C62.3614 20.0289 62.6231 19.0678 62.6231 17.9996C62.6231 16.7183 62.2592 15.6074 61.5326 14.6659C60.9667 13.9326 60.2243 13.3456 59.3103 12.901L59.3115 12.9022ZM50.9283 5.88757H55.6712C56.679 5.88757 57.4847 6.14458 58.0859 6.65859C58.6871 7.17259 58.9877 7.91559 58.9877 8.88636C58.9877 9.85712 58.7017 10.6001 58.1297 11.1141C57.5577 11.6281 56.7763 11.8864 55.7881 11.8864H50.9296V5.88757H50.9283ZM58.8709 20.2871C58.2113 20.9765 57.2997 21.3212 56.1362 21.3212H50.9283V14.2749H56.1946C56.9516 14.2749 57.6052 14.4345 58.1589 14.7548C58.7115 15.0752 59.1338 15.4978 59.4247 16.0216C59.7156 16.5453 59.8616 17.1385 59.8616 17.7974C59.8616 18.7682 59.5318 19.5989 58.8721 20.2871H58.8709Z" fill="white"/>
<path d="M68.4736 2.91699H65.8545V23.7075H68.4736V2.91699Z" fill="white"/>
<path d="M81.1868 17.7978C81.1868 18.9439 80.8959 19.8416 80.3142 20.4908C79.7324 21.1413 78.9267 21.4665 77.8995 21.4665C77.2204 21.4665 76.6289 21.3203 76.125 21.0292C75.6199 20.7381 75.2378 20.3154 74.9761 19.7625C74.7144 19.2095 74.583 18.5542 74.583 17.7966V9.87695H71.9639V17.9135C71.9639 19.1169 72.2158 20.1754 72.7209 21.0877C73.2247 22 73.9282 22.704 74.8301 23.1985C75.7319 23.693 76.7555 23.9415 77.8995 23.9415C79.0435 23.9415 80.0622 23.6943 80.9543 23.1985C81.8464 22.704 82.545 22 83.0489 21.0877C83.5528 20.1754 83.8059 19.1181 83.8059 17.9135V9.87695H81.1868V17.7966V17.7978Z" fill="white"/>
<path d="M96.9271 10.4593C95.9376 9.87705 94.8131 9.58594 93.5522 9.58594C92.2134 9.58594 91.0061 9.90141 89.9302 10.5323C88.8531 11.1633 87.9999 12.022 87.3695 13.1097C86.7391 14.1974 86.4238 15.4203 86.4238 16.7784C86.4238 18.1365 86.7439 19.3898 87.3841 20.4763C88.0243 21.564 88.892 22.4227 89.9886 23.0537C91.084 23.6846 92.3302 24.0001 93.7274 24.0001C94.8131 24.0001 95.8317 23.7967 96.7823 23.3886C97.7328 22.9806 98.547 22.3886 99.2261 21.6127L97.5381 19.8953C97.0719 20.4386 96.5145 20.8466 95.8646 21.1182C95.2147 21.3898 94.5015 21.5263 93.7262 21.5263C92.7952 21.5263 91.97 21.3277 91.2531 20.9294C90.5351 20.5311 89.9825 19.9684 89.5943 19.24C89.357 18.7954 89.1939 18.3046 89.1014 17.7699H99.9235C99.9819 17.4982 100.021 17.251 100.04 17.0269C100.06 16.804 100.07 16.5945 100.07 16.4008C100.07 15.0805 99.7933 13.9063 99.2407 12.877C98.6882 11.8478 97.9166 11.0427 96.9271 10.4605V10.4593ZM89.1075 15.5847C89.1963 15.0853 89.3484 14.6286 89.5651 14.2157C89.9338 13.5165 90.4572 12.9733 91.1363 12.5847C91.8154 12.1962 92.6004 12.0025 93.4925 12.0025C94.3846 12.0025 95.0735 12.1828 95.6747 12.5409C96.276 12.9002 96.7409 13.4045 97.0719 14.0549C97.2971 14.4982 97.4431 15.0086 97.5149 15.5835H89.1075V15.5847Z" fill="white"/>
<path d="M119.229 16.4878L111.329 3.5H109.408V23.7083H112.144V9.48782L118.254 19.5731H120.204L126.313 9.48782V23.7083H129.048V3.5H127.127L119.229 16.4878Z" fill="white"/>
<path d="M143.828 11.7577C143.352 11.1267 142.757 10.6213 142.039 10.2412C141.214 9.80396 140.279 9.58594 139.231 9.58594C137.951 9.58594 136.802 9.90628 135.783 10.547C134.765 11.1876 133.96 12.0512 133.369 13.1389C132.777 14.2266 132.481 15.4495 132.481 16.8076C132.481 18.1657 132.777 19.3898 133.369 20.4763C133.96 21.564 134.766 22.4227 135.783 23.0537C136.802 23.6846 137.951 24.0001 139.231 24.0001C140.279 24.0001 141.22 23.782 142.054 23.3448C142.771 22.9684 143.362 22.4666 143.828 21.8393V23.709H146.475V9.87826H143.828V11.7589V11.7577ZM142.811 20.1998C142.015 21.0829 140.968 21.525 139.668 21.525C138.796 21.525 138.019 21.3216 137.341 20.9136C136.662 20.5055 136.134 19.9477 135.755 19.2388C135.377 18.5299 135.188 17.7102 135.188 16.7784C135.188 15.8466 135.377 15.0561 135.755 14.3472C136.134 13.6383 136.657 13.0805 137.327 12.6724C137.996 12.2644 138.766 12.061 139.64 12.061C140.514 12.061 141.274 12.2607 141.925 12.6578C142.575 13.0561 143.083 13.614 143.452 14.3326C143.821 15.0512 144.005 15.8758 144.005 16.8076C144.005 18.1864 143.607 19.3168 142.812 20.1998H142.811Z" fill="white"/>
<path d="M154.272 12.716C154.952 12.3189 155.727 12.1192 156.6 12.1192C157.316 12.1192 157.986 12.2507 158.608 12.5126C159.228 12.7745 159.752 13.1582 160.179 13.6624L161.924 11.9158C161.265 11.1582 160.48 10.5808 159.568 10.1837C158.656 9.78545 157.667 9.58691 156.601 9.58691C155.242 9.58691 154.016 9.90238 152.92 10.5333C151.824 11.1643 150.961 12.023 150.33 13.1107C149.7 14.1984 149.385 15.4213 149.385 16.7794C149.385 18.1375 149.7 19.3372 150.33 20.4334C150.961 21.5309 151.824 22.3993 152.92 23.04C154.016 23.6807 155.242 24.001 156.601 24.001C157.667 24.001 158.661 23.7976 159.583 23.3896C160.504 22.9816 161.284 22.4091 161.924 21.6722L160.208 19.9255C159.761 20.431 159.233 20.8135 158.622 21.0753C158.011 21.3372 157.337 21.4688 156.6 21.4688C155.727 21.4688 154.95 21.2654 154.272 20.8573C153.593 20.4493 153.06 19.8963 152.672 19.1971C152.284 18.498 152.09 17.6929 152.09 16.7806C152.09 15.8683 152.284 15.0632 152.672 14.364C153.06 13.6649 153.593 13.1168 154.272 12.7185V12.716Z" fill="white"/>
<path d="M174.306 10.2848C173.501 9.81833 172.575 9.58569 171.527 9.58569C170.479 9.58569 169.539 9.8232 168.705 10.2995C168.077 10.6576 167.552 11.1131 167.134 11.6636V2.91699H164.515V23.7075H167.134V15.6417C167.134 14.9426 167.288 14.3214 167.6 13.7781C167.91 13.2349 168.337 12.8074 168.88 12.4968C169.423 12.1862 170.044 12.0303 170.742 12.0303C171.79 12.0303 172.639 12.3701 173.288 13.0498C173.938 13.7294 174.263 14.593 174.263 15.6417V23.7075H176.91V15.118C176.91 14.0315 176.678 13.0705 176.212 12.2349C175.746 11.4005 175.11 10.7501 174.306 10.2836V10.2848Z" fill="white"/>
<path d="M183.106 9.87695H180.459V23.7076H183.106V9.87695Z" fill="white"/>
<path d="M181.797 3.7627C181.311 3.7627 180.914 3.92226 180.604 4.2426C180.293 4.56294 180.138 4.95636 180.138 5.42165C180.138 5.88693 180.292 6.30959 180.604 6.62993C180.914 6.95027 181.312 7.10983 181.797 7.10983C182.281 7.10983 182.679 6.95027 182.989 6.62993C183.3 6.30959 183.455 5.90642 183.455 5.42165C183.455 4.93687 183.3 4.56294 182.989 4.2426C182.679 3.92226 182.281 3.7627 181.797 3.7627Z" fill="white"/>
<path d="M196.767 10.3728C195.962 9.84903 195.036 9.58594 193.988 9.58594C192.94 9.58594 192 9.82345 191.166 10.2997C190.538 10.6578 190.013 11.1133 189.595 11.6639V9.87705H186.976V23.7077H189.595V15.642C189.595 14.9428 189.749 14.3216 190.061 13.7784C190.371 13.2351 190.798 12.8076 191.341 12.497C191.884 12.1864 192.505 12.0305 193.203 12.0305C194.251 12.0305 195.099 12.3703 195.749 13.05C196.399 13.7297 196.724 14.5932 196.724 15.642V23.7077H199.371V15.1182C199.371 14.1669 199.139 13.2693 198.673 12.4252C198.207 11.5811 197.571 10.8965 196.767 10.3728Z" fill="white"/>
<path d="M212.522 10.4593C211.532 9.87705 210.408 9.58594 209.147 9.58594C207.808 9.58594 206.601 9.90141 205.525 10.5323C204.448 11.1633 203.595 12.022 202.964 13.1097C202.334 14.1974 202.019 15.4203 202.019 16.7784C202.019 18.1365 202.339 19.3898 202.979 20.4763C203.619 21.564 204.487 22.4227 205.583 23.0537C206.679 23.6846 207.925 24.0001 209.322 24.0001C210.408 24.0001 211.426 23.7967 212.377 23.3886C213.328 22.9806 214.142 22.3886 214.821 21.6127L213.133 19.8953C212.667 20.4386 212.109 20.8466 211.459 21.1182C210.809 21.3898 210.096 21.5263 209.321 21.5263C208.39 21.5263 207.565 21.3277 206.848 20.9294C206.13 20.5311 205.577 19.9684 205.189 19.24C204.952 18.7954 204.789 18.3046 204.696 17.7699H215.518C215.577 17.4982 215.616 17.251 215.635 17.0269C215.655 16.804 215.664 16.5945 215.664 16.4008C215.664 15.0805 215.388 13.9063 214.835 12.877C214.283 11.8478 213.511 11.0427 212.522 10.4605V10.4593ZM204.703 15.5847C204.792 15.0853 204.944 14.6286 205.161 14.2157C205.53 13.5165 206.053 12.9733 206.732 12.5847C207.411 12.1962 208.196 12.0025 209.088 12.0025C209.981 12.0025 210.669 12.1828 211.271 12.5409C211.872 12.9002 212.337 13.4045 212.668 14.0549C212.893 14.4982 213.039 15.0086 213.111 15.5835H204.703V15.5847Z" fill="white"/>
<path d="M226.08 16.4573C225.518 16.1467 224.926 15.8995 224.306 15.7143C223.685 15.5304 223.089 15.3501 222.517 15.1759C221.945 15.0018 221.483 14.7874 221.134 14.5353C220.785 14.2831 220.611 13.9238 220.611 13.4573C220.611 12.9908 220.809 12.6522 221.207 12.3794C221.604 12.1077 222.182 11.9713 222.938 11.9713C223.655 11.9713 224.295 12.1077 224.858 12.3794C225.421 12.651 225.906 13.0395 226.313 13.5438L228.001 11.8544C227.458 11.0968 226.764 10.5292 225.921 10.1516C225.077 9.77278 224.112 9.58398 223.025 9.58398C221.997 9.58398 221.115 9.74964 220.377 10.0785C219.639 10.4086 219.072 10.8787 218.676 11.4914C218.278 12.1029 218.079 12.8264 218.079 13.6607C218.079 14.4951 218.258 15.1699 218.617 15.6839C218.976 16.1991 219.436 16.601 220 16.8921C220.562 17.1833 221.158 17.4159 221.789 17.5913C222.419 17.7655 223.016 17.9457 223.578 18.1297C224.14 18.3148 224.6 18.5474 224.96 18.8288C225.32 19.1102 225.498 19.5036 225.498 20.0079C225.498 20.5121 225.276 20.9055 224.829 21.1869C224.382 21.4683 223.752 21.6096 222.938 21.6096C222.123 21.6096 221.386 21.4597 220.726 21.1577C220.067 20.8568 219.485 20.3964 218.981 19.774L217.293 21.4634C217.719 21.9872 218.219 22.439 218.791 22.8178C219.363 23.1967 219.998 23.4878 220.697 23.6912C221.396 23.8946 222.132 23.9969 222.909 23.9969C224.46 23.9969 225.697 23.6181 226.618 22.8617C227.539 22.1041 228.001 21.0761 228.001 19.7752C228.001 18.9214 227.821 18.232 227.463 17.7082C227.104 17.1845 226.644 16.7667 226.08 16.4561V16.4573Z" fill="white"/>
<path d="M37.8848 3.30694L35.8559 2.09013L35.3874 1.34105L32.1609 0.662607L31.5938 0.0767357L31.0583 0L30.395 0.159561L30.2733 0.825822L30.0165 0.861145L24.2451 1.64555H21.766L17.6803 3.87089H7.98881L2.80655 8.40682L0 18.9781V22.1023L0.856813 23.7089H5.32709L3.44308 21.9306L6.56971 17.6967L7.41923 19.3837L7.92674 20.3922L9.59777 23.7089H14.0668L12.184 21.9306V16.5347L17.101 15.3605L17.1022 15.3593L18.9777 14.9111L19.03 14.8989L18.57 16.6943L20.7935 23.7089H25.2638L23.3798 21.9306L24.4545 16.8502L25.3478 12.9513L28.3101 10.1035L33.7285 6.35445L36.9951 5.42753L37.774 4.74543L37.9274 4.31547L38.2183 3.50548L37.8848 3.30694Z" fill="white"/>
<path d="M34.1131 1.89355L35.1853 2.31377L34.1131 2.73399L33.7188 2.31377L34.1131 1.89355Z" fill="black"/>
<path d="M30.7197 1.02814L30.7209 1.0257L30.7854 0.554328L31.2552 0.503171L31.2565 0.501953L31.663 0.925826L31.2528 1.2011L31.1262 1.4508L30.7197 1.02814Z" fill="black"/>
<path d="M33.1062 23.7089H28.6359L24.4541 16.8489L25.3486 12.9513L28.3098 10.1035L28.4716 13.6845L31.2222 21.9306L33.1062 23.7089Z" fill="white"/>
<path d="M21.7656 1.64551L20.3404 7.84283L17.6787 3.87084L21.7656 1.64551Z" fill="#B6CAD3"/>
<path d="M30.273 0.826172V1.29024L30.895 1.98573L29.8154 1.62276V0.888291L30.273 0.826172Z" fill="#B6CAD3"/>
<path d="M20.4056 9.53809L18.5703 16.6952L20.7939 23.7086L19.7825 16.6233L20.4056 9.53809Z" fill="#B6CAD3"/>
<path d="M20.4051 9.53809L18.3994 12.7805L15.4833 13.5259L11.5668 12.3761L10.8427 9.73419L9.81059 13.8109L7.53711 16.5356H12.1826L18.9775 14.9108L20.4051 9.53809Z" fill="#B6CAD3"/>
<path d="M17.1006 15.3603L19.1647 12.5856L20.4049 9.53809L19.0296 14.8986L17.1006 15.3603Z" fill="#83959B"/>
<path d="M8.09919 20.7359L9.41118 18.7359H12.1824V16.5361H7.5369L6.56934 17.6969L8.09919 20.7359Z" fill="#B6CAD3"/>
<path d="M12.1827 16.5344V17.6964H9.04509L7.32902 19.2043L6.56836 17.6964L9.42846 13.823L10.8427 9.73535L9.80088 16.5344H12.1827Z" fill="#83959B"/>
<path d="M12.1824 21.9307H10.4932L14.0665 23.709L12.1824 21.9307Z" fill="#B6CAD3"/>
<path d="M23.3797 21.9307H21.6904L25.2637 23.709L23.3797 21.9307Z" fill="#B6CAD3"/>
<path d="M3.44295 21.9307H1.75488L5.32697 23.709L3.44295 21.9307Z" fill="#B6CAD3"/>
<path d="M31.2225 21.9307H29.5332L33.1065 23.709L31.2225 21.9307Z" fill="#B6CAD3"/>
<path d="M24.4541 16.8489L25.8586 13.9525L28.367 11.5578L28.3098 10.1035L25.3486 12.9513L24.4541 16.8489Z" fill="#83959B"/>
<path d="M28.367 11.5576L28.4716 13.6843L26.4635 15.8122L25.8902 19.2044L24.4541 16.8487L25.8586 13.9523L28.367 11.5576Z" fill="#B6CAD3"/>
<path d="M25.3486 12.9515L26.4635 7.41309L28.3098 10.1037L25.3486 12.9515Z" fill="#83959B"/>
<path d="M26.4639 7.41332L30.3719 5.74219L31.1593 6.53025L28.3102 10.1039L26.4639 7.41332Z" fill="#B6CAD3"/>
<path d="M28.3105 10.1037L31.1597 6.53005L33.965 5.42773H36.9943L33.7277 6.35465L28.3105 10.1037Z" fill="#83959B"/>
<path d="M7.98759 3.87109L0 18.9783L2.80655 8.40703L7.98759 3.87109Z" fill="#B6CAD3"/>
<path d="M38.1208 3.54247L37.8519 4.27937L37.3796 4.16731L36.8867 3.78485L37.7362 3.31348L38.1208 3.54247Z" fill="black"/>
</g>
<defs>
<clipPath id="clip0_56951_2116">
<rect width="228" height="24" fill="white"/>
</clipPath>
</defs>
</svg>