<svg width="64" height="64" viewBox="0 0 64 64" fill="none" xmlns="http://www.w3.org/2000/svg">
<rect width="64" height="64" rx="32" fill="url(#paint0_linear_56996_1949)"/>
<mask id="mask0_56996_1949" style="mask-type:alpha" maskUnits="userSpaceOnUse" x="8" y="8" width="48" height="48">
<rect x="8" y="8" width="48" height="48" fill="#D9D9D9"/>
</mask>
<g mask="url(#mask0_56996_1949)">
<path d="M27.0995 39.031L44.3765 21.754C44.6739 21.4564 45.0219 21.3044 45.4205 21.298C45.8192 21.2917 46.1737 21.4437 46.484 21.754C46.7944 22.0644 46.9495 22.4207 46.9495 22.823C46.9495 23.2257 46.7944 23.5822 46.484 23.8925L28.365 42.0425C28.0034 42.4039 27.5815 42.5845 27.0995 42.5845C26.6175 42.5845 26.1957 42.4039 25.834 42.0425L17.484 33.6925C17.1867 33.3949 17.04 33.0415 17.044 32.6325C17.0477 32.2239 17.2047 31.8644 17.515 31.554C17.8254 31.2437 18.1817 31.0885 18.584 31.0885C18.9867 31.0885 19.3432 31.2437 19.6535 31.554L27.0995 39.031Z" fill="#061B2D"/>
</g>
<defs>
<linearGradient id="paint0_linear_56996_1949" x1="2.19495e-08" y1="0.864865" x2="72.0503" y2="11.7942" gradientUnits="userSpaceOnUse">
<stop stop-color="#B2E6D6"/>
<stop offset="1" stop-color="#8CC7FF"/>
</linearGradient>
</defs>
</svg>
