<svg width="86" height="26" viewBox="0 0 86 26" fill="none" xmlns="http://www.w3.org/2000/svg">
<g clip-path="url(#clip0_56813_1240)">
<path d="M53.3406 20.3119C48.349 23.9972 41.1139 25.9635 34.8847 25.9635C26.1503 25.9635 18.287 22.7275 12.3382 17.3456C11.8708 16.9224 12.2896 16.3456 12.8504 16.6752C19.2704 20.4167 27.2084 22.6676 35.4082 22.6676C40.9382 22.6676 47.0216 21.5216 52.6153 19.1433C53.4603 18.7838 54.167 19.6976 53.3406 20.3119Z" fill="#061B2D"/>
<path d="M55.416 17.934C54.7804 17.1175 51.1983 17.5482 49.5906 17.7392C49.1007 17.7992 49.026 17.3722 49.4672 17.0651C52.3201 15.0539 57.0013 15.6344 57.5473 16.3085C58.0932 16.9864 57.4052 21.6867 54.7243 23.9302C54.313 24.2747 53.9204 24.0912 54.1036 23.6343C54.7056 22.1287 56.0554 18.7542 55.416 17.934Z" fill="#061B2D"/>
<path d="M49.7024 2.86639V0.911366C49.7024 0.615491 49.9267 0.416992 50.1959 0.416992H58.9341C59.2145 0.416992 59.4389 0.619236 59.4389 0.911366V2.5855C59.4351 2.86639 59.1996 3.23343 58.7808 3.81394L54.2528 10.2895C55.9354 10.2483 57.7114 10.4992 59.237 11.3607C59.581 11.5554 59.6744 11.84 59.7006 12.1209V14.2071C59.7006 14.4917 59.3865 14.825 59.0575 14.6527C56.3691 13.2408 52.7983 13.0872 49.8258 14.6677C49.5229 14.8325 49.2051 14.5029 49.2051 14.2183V12.237C49.2051 11.9187 49.2088 11.3756 49.5266 10.8925L54.7725 3.35702H50.2071C49.9267 3.35702 49.7024 3.15853 49.7024 2.86639Z" fill="#061B2D"/>
<path d="M17.8277 15.0647H15.1692C14.9149 15.0459 14.713 14.8549 14.6943 14.6115V0.945033C14.6943 0.671628 14.9224 0.454401 15.2066 0.454401H17.6856C17.9436 0.46563 18.1492 0.664136 18.1679 0.911323V2.69782H18.2165C18.8634 0.971247 20.0786 0.166016 21.7163 0.166016C23.3802 0.166016 24.4196 0.971247 25.1674 2.69782C25.8105 0.971247 27.2725 0.166016 28.8392 0.166016C29.9534 0.166016 31.1723 0.626683 31.9164 1.66038C32.7577 2.81017 32.5857 4.48056 32.5857 5.94496L32.582 14.5703C32.582 14.8437 32.3539 15.0647 32.0697 15.0647H29.415C29.1495 15.0459 28.9364 14.8325 28.9364 14.5703V7.32696C28.9364 6.75019 28.9887 5.31201 28.8616 4.7652C28.6634 3.84761 28.0689 3.58919 27.2987 3.58919C26.6556 3.58919 25.9825 4.01989 25.7096 4.70902C25.4366 5.39815 25.4628 6.55169 25.4628 7.32696V14.5703C25.4628 14.8437 25.2347 15.0647 24.9506 15.0647H22.2958C22.0266 15.0459 21.8172 14.8325 21.8172 14.5703L21.8135 7.32696C21.8135 5.80264 22.064 3.55922 20.1758 3.55922C18.2651 3.55922 18.3399 5.74646 18.3399 7.32696V14.5703C18.3399 14.8437 18.1118 15.0647 17.8277 15.0647Z" fill="#061B2D"/>
<path d="M66.962 0.166016C70.9067 0.166016 73.0417 3.55922 73.0417 7.87377C73.0417 12.0422 70.6823 15.3493 66.962 15.3493C63.0883 15.3493 60.9795 11.9561 60.9795 7.7277C60.9795 3.47308 63.1145 0.166016 66.962 0.166016ZM66.9844 2.95624C65.0252 2.95624 64.9018 5.63035 64.9018 7.297C64.9018 8.96739 64.8756 12.5329 66.962 12.5329C69.0222 12.5329 69.1194 9.65652 69.1194 7.90373C69.1194 6.75019 69.0708 5.37193 68.7231 4.27831C68.4239 3.32702 67.8294 2.95624 66.9844 2.95624Z" fill="#061B2D"/>
<path d="M78.1569 15.0647H75.5097C75.2442 15.0459 75.0311 14.8325 75.0311 14.5703L75.0273 0.900087C75.0498 0.649154 75.2704 0.454401 75.5396 0.454401H78.0036C78.2354 0.46563 78.4261 0.622938 78.4785 0.836418V2.92627H78.5271C79.2712 1.05739 80.3144 0.166016 82.1502 0.166016C83.343 0.166016 84.5058 0.596721 85.2537 1.77648C85.9491 2.8701 85.9491 4.70902 85.9491 6.0311V14.634C85.9192 14.8737 85.6986 15.0647 85.4369 15.0647H82.7709C82.5279 15.0459 82.326 14.8662 82.2998 14.634V7.21086C82.2998 5.7165 82.4718 3.52926 80.6359 3.52926C79.9891 3.52926 79.3946 3.96371 79.0992 4.62288C78.7253 5.45807 78.6767 6.28952 78.6767 7.21086V14.5703C78.6729 14.8437 78.4411 15.0647 78.1569 15.0647Z" fill="#061B2D"/>
<path d="M42.7366 8.53691V7.96013C40.8148 7.96013 38.7845 8.37211 38.7845 10.6417C38.7845 11.7915 39.379 12.5706 40.3997 12.5706C41.1475 12.5706 41.8168 12.1099 42.2393 11.3608C42.7628 10.4395 42.7366 9.57434 42.7366 8.53691ZM45.4175 15.0274C45.2418 15.1847 44.9875 15.196 44.7894 15.0911C43.907 14.357 43.7499 14.0162 43.2638 13.3159C41.8056 14.8065 40.7736 15.2522 38.8817 15.2522C36.6457 15.2522 34.9033 13.8702 34.9033 11.1024C34.9033 8.94139 36.0736 7.4695 37.7375 6.75041C39.1808 6.11372 41.1961 6.00136 42.7366 5.82534V5.48077C42.7366 4.84782 42.7852 4.09877 42.4151 3.55196C42.0898 3.06133 41.4691 2.85908 40.9232 2.85908C39.9099 2.85908 39.0051 3.37968 38.7845 4.45831C38.7396 4.69801 38.5639 4.93396 38.3246 4.9452L35.7446 4.66805C35.5277 4.61936 35.2884 4.44333 35.3483 4.11001C35.9428 0.978965 38.7658 0.0351562 41.2934 0.0351562C42.5871 0.0351562 44.2771 0.379721 45.2979 1.36098C46.5916 2.5707 46.4682 4.18491 46.4682 5.94144V10.0912C46.4682 11.3384 46.9842 11.8852 47.4703 12.5593C47.6423 12.799 47.6797 13.0874 47.4628 13.2672C46.9206 13.7204 45.956 14.563 45.425 15.0349L45.4175 15.0274Z" fill="#061B2D"/>
<path d="M7.88507 8.53691V7.96013C5.9632 7.96013 3.93289 8.37211 3.93289 10.6417C3.93289 11.7915 4.5274 12.5706 5.54816 12.5706C6.29597 12.5706 6.96526 12.1099 7.38778 11.3608C7.91124 10.4395 7.88507 9.57434 7.88507 8.53691ZM10.566 15.0274C10.3902 15.1847 10.136 15.196 9.93781 15.0911C9.0554 14.357 8.89835 14.0162 8.41228 13.3159C6.95405 14.8065 5.92207 15.2522 4.03011 15.2522C1.79415 15.2522 0.0517578 13.8702 0.0517578 11.1024C0.0517578 8.94139 1.22208 7.4695 2.88596 6.75041C4.32923 6.11372 6.34458 6.00136 7.88507 5.82534V5.48077C7.88507 4.84782 7.93368 4.09877 7.56351 3.55196C7.23821 3.06133 6.61753 2.85908 6.07163 2.85908C5.05835 2.85908 4.1535 3.37968 3.93289 4.45831C3.88802 4.69801 3.71229 4.93396 3.47299 4.9452L0.893045 4.66805C0.676179 4.61936 0.436879 4.44333 0.496704 4.11001C1.09121 0.978965 3.9142 0.0351562 6.4418 0.0351562C7.73551 0.0351562 9.42556 0.379721 10.4463 1.36098C11.74 2.5707 11.6166 4.18491 11.6166 5.94144V10.0912C11.6166 11.3384 12.1326 11.8852 12.6187 12.5593C12.7907 12.799 12.8281 13.0874 12.6112 13.2672C12.0691 13.7204 11.1044 14.563 10.5734 15.0349L10.566 15.0274Z" fill="#061B2D"/>
</g>
<defs>
<clipPath id="clip0_56813_1240">
<rect width="86" height="26" fill="white"/>
</clipPath>
</defs>
</svg>