<svg width="86" height="28" viewBox="0 0 86 28" fill="none" xmlns="http://www.w3.org/2000/svg">
<g clip-path="url(#clip0_56813_1228)">
<path d="M10.7385 9.555V12.425H17.572C17.3628 14.035 16.8282 15.2133 16.0147 16.0417C15.0152 17.045 13.4579 18.1417 10.7385 18.1417C6.53144 18.1417 3.24252 14.735 3.24252 10.5117C3.24252 6.28833 6.53144 2.88167 10.7385 2.88167C13.0047 2.88167 14.6666 3.78 15.8868 4.935L17.8974 2.91667C16.2006 1.26 13.9228 0 10.7385 0C4.97415 0 0.12793 4.71333 0.12793 10.5C0.12793 16.2867 4.97415 21 10.7385 21C13.8531 21 16.2006 19.9733 18.0368 18.06C19.9196 16.17 20.5123 13.4983 20.5123 11.3517C20.5123 10.6867 20.4658 10.0683 20.3612 9.555H10.7385Z" fill="#061B2D"/>
<path d="M29.0537 7.22168C25.3232 7.22168 22.2783 10.0683 22.2783 14C22.2783 17.8967 25.3232 20.7783 29.0537 20.7783C32.7843 20.7783 35.8291 17.9083 35.8291 14C35.8291 10.0683 32.7843 7.22168 29.0537 7.22168ZM29.0537 18.1067C27.0083 18.1067 25.2418 16.415 25.2418 14C25.2418 11.5617 27.0083 9.89335 29.0537 9.89335C31.0991 9.89335 32.8656 11.5617 32.8656 14C32.8656 16.415 31.0991 18.1067 29.0537 18.1067Z" fill="#061B2D"/>
<path d="M62.2682 8.73835H62.1636C61.5012 7.94501 60.2228 7.22168 58.6074 7.22168C55.2371 7.22168 52.2969 10.1733 52.2969 14C52.2969 17.8033 55.2371 20.7783 58.6074 20.7783C60.2228 20.7783 61.5012 20.055 62.1636 19.2383H62.2682V20.1833C62.2682 22.7733 60.8853 24.1617 58.6655 24.1617C56.8526 24.1617 55.7253 22.855 55.2604 21.7467L52.6804 22.82C53.4242 24.6167 55.3882 26.8217 58.6655 26.8217C62.1404 26.8217 65.0807 24.7683 65.0807 19.7633V7.57168H62.2682V8.73835ZM58.8631 18.1067C56.8177 18.1067 55.2604 16.3567 55.2604 14C55.2604 11.6083 56.8177 9.89335 58.8631 9.89335C60.8853 9.89335 62.4658 11.6433 62.4658 14.0233C62.4774 16.3917 60.8853 18.1067 58.8631 18.1067Z" fill="#061B2D"/>
<path d="M44.1621 7.22168C40.4316 7.22168 37.3867 10.0683 37.3867 14C37.3867 17.8967 40.4316 20.7783 44.1621 20.7783C47.8927 20.7783 50.9375 17.9083 50.9375 14C50.9375 10.0683 47.8927 7.22168 44.1621 7.22168ZM44.1621 18.1067C42.1167 18.1067 40.3502 16.415 40.3502 14C40.3502 11.5617 42.1167 9.89335 44.1621 9.89335C46.2075 9.89335 47.974 11.5617 47.974 14C47.974 16.415 46.2075 18.1067 44.1621 18.1067Z" fill="#061B2D"/>
<path d="M67.4053 0.279785H70.3223V20.7781H67.4053V0.279785Z" fill="#061B2D"/>
<path d="M79.3288 18.1067C77.818 18.1067 76.7488 17.4183 76.0515 16.0533L85.0815 12.3083L84.7794 11.5383C84.2215 10.0217 82.5015 7.22168 79.0034 7.22168C75.5286 7.22168 72.6348 9.96335 72.6348 14C72.6348 17.8033 75.4937 20.7783 79.3288 20.7783C82.4202 20.7783 84.2099 18.8767 84.9537 17.78L82.6526 16.24C81.8856 17.36 80.8396 18.1067 79.3288 18.1067ZM79.1196 9.76501C80.3167 9.76501 81.3394 10.3833 81.6764 11.2583L75.575 13.79C75.575 10.9433 77.5856 9.76501 79.1196 9.76501Z" fill="#061B2D"/>
</g>
<defs>
<clipPath id="clip0_56813_1228">
<rect width="86" height="28" fill="white"/>
</clipPath>
</defs>
</svg>