<svg width="62" height="24" viewBox="0 0 62 24" fill="none" xmlns="http://www.w3.org/2000/svg">
<g clip-path="url(#clip0_56813_1249)">
<path d="M4.48789 0.334473H0V4.81256H4.48789V0.334473Z" fill="#061B2D"/>
<path d="M4.37626 23.6653V7.53785H0.12793V23.6653H4.37626ZM32.6132 23.8247V19.8725C31.9904 19.8725 31.4633 19.8406 31.08 19.7769C30.6328 19.7131 30.2974 19.5538 30.0738 19.3307C29.8502 19.1076 29.7065 18.7888 29.6266 18.3745C29.5628 17.9761 29.5308 17.4502 29.5308 16.8127V11.1713H32.6132V7.53785H29.5308V1.24303H25.2665V16.8446C25.2665 18.1673 25.3783 19.2829 25.6019 20.1753C25.8255 21.0518 26.2088 21.7689 26.7359 22.3108C27.2629 22.8526 27.9656 23.2351 28.8121 23.4741C29.6746 23.7131 30.7606 23.8247 32.0543 23.8247H32.6132ZM57.0172 23.6653V0H52.7529V23.6653H57.0172ZM21.1619 9.11554C19.9801 7.84064 18.3191 7.20319 16.2109 7.20319C15.1887 7.20319 14.2624 7.41036 13.4159 7.8247C12.5854 8.23904 11.8667 8.81275 11.3077 9.54582L11.0682 9.84861V9.57769V7.53785H6.86775V23.6653H11.1001V15.0757V15.6653C11.1001 15.5697 11.1001 15.4741 11.1001 15.3785C11.148 13.8645 11.5154 12.749 12.2181 12.0319C12.9687 11.2669 13.8791 10.8845 14.9172 10.8845C16.147 10.8845 17.0893 11.2669 17.7122 12C18.3191 12.7331 18.6385 13.7689 18.6385 15.0916V15.1235V23.6494H22.9347V14.502C22.9507 12.2072 22.3438 10.3904 21.1619 9.11554ZM50.5488 15.5697C50.5488 14.4064 50.3412 13.3227 49.9419 12.3028C49.5267 11.2988 48.9517 10.4064 48.233 9.64143C47.4984 8.87649 46.6199 8.28685 45.5978 7.85657C44.5756 7.42629 43.4417 7.21912 42.2119 7.21912C41.046 7.21912 39.944 7.44223 38.9218 7.87251C37.8997 8.31872 37.0053 8.90837 36.2547 9.65737C35.504 10.4064 34.8971 11.2988 34.4659 12.3187C34.0187 13.3386 33.8111 14.4382 33.8111 15.6016C33.8111 16.7649 34.0187 17.8645 34.434 18.8845C34.8492 19.9044 35.4401 20.7968 36.1748 21.5458C36.9095 22.2948 37.8198 22.9004 38.8739 23.3307C39.928 23.7769 41.0939 24 42.3397 24C45.9492 24 48.1851 22.3586 49.5267 20.8287L46.4602 18.502C45.8214 19.2669 44.2882 20.3028 42.3716 20.3028C41.1738 20.3028 40.1836 20.0319 39.4329 19.4741C38.6823 18.9323 38.1712 18.1673 37.8997 17.2271L37.8518 17.0837H50.5488V15.5697ZM37.8837 14.0876C37.8837 12.9084 39.2413 10.8526 42.164 10.8367C45.0867 10.8367 46.4602 12.8924 46.4602 14.0717L37.8837 14.0876Z" fill="#061B2D"/>
<path d="M61.8727 21.5616C61.7928 21.3704 61.681 21.211 61.5373 21.0676C61.3936 20.9242 61.2338 20.8126 61.0422 20.733C60.8505 20.6533 60.6429 20.6055 60.4353 20.6055C60.2117 20.6055 60.02 20.6533 59.8284 20.733C59.6367 20.8126 59.477 20.9242 59.3333 21.0676C59.1895 21.211 59.0777 21.3704 58.9979 21.5616C58.918 21.7529 58.8701 21.9601 58.8701 22.1672C58.8701 22.3903 58.918 22.5816 58.9979 22.7728C59.0777 22.964 59.1895 23.1234 59.3333 23.2668C59.477 23.4102 59.6367 23.5218 59.8284 23.6015C60.02 23.6812 60.2277 23.729 60.4353 23.729C60.6589 23.729 60.8505 23.6812 61.0422 23.6015C61.2338 23.5218 61.3936 23.4102 61.5373 23.2668C61.681 23.1234 61.7928 22.964 61.8727 22.7728C61.9525 22.5816 62.0005 22.3744 62.0005 22.1672C62.0005 21.9601 61.9525 21.7529 61.8727 21.5616ZM61.6172 22.6772C61.5533 22.8365 61.4574 22.98 61.3456 23.0915C61.2338 23.2031 61.0901 23.2987 60.9304 23.3624C60.7707 23.4262 60.611 23.4581 60.4193 23.4581C60.2436 23.4581 60.068 23.4262 59.9082 23.3624C59.7485 23.2987 59.6048 23.2031 59.493 23.0915C59.3812 22.98 59.2854 22.8365 59.2215 22.6772C59.1576 22.5178 59.1257 22.3585 59.1257 22.1672C59.1257 21.9919 59.1576 21.8166 59.2215 21.6573C59.2854 21.4979 59.3812 21.3545 59.493 21.2429C59.6048 21.1314 59.7485 21.0357 59.9082 20.972C60.068 20.9083 60.2277 20.8764 60.4193 20.8764C60.595 20.8764 60.7707 20.9083 60.9304 20.972C61.0901 21.0357 61.2338 21.1314 61.3456 21.2429C61.4574 21.3545 61.5533 21.4979 61.6172 21.6573C61.681 21.8166 61.713 21.976 61.713 22.1672C61.729 22.3585 61.681 22.5178 61.6172 22.6772ZM60.7228 22.2947C60.8505 22.2788 60.9464 22.231 61.0262 22.1513C61.1061 22.0716 61.154 21.9601 61.154 21.8007C61.154 21.6254 61.1061 21.4979 60.9943 21.4023C60.8985 21.3067 60.7228 21.2589 60.5151 21.2589H59.8124V23.0597H60.1478V22.3266H60.3874L60.8346 23.0597H61.1859L60.7228 22.2947ZM60.5471 22.0397C60.4992 22.0397 60.4513 22.0397 60.3874 22.0397H60.1478V21.5298H60.3874C60.4353 21.5298 60.4832 21.5298 60.5471 21.5298C60.595 21.5298 60.6429 21.5457 60.6908 21.5616C60.7387 21.5776 60.7707 21.6095 60.7867 21.6413C60.8026 21.6732 60.8186 21.721 60.8186 21.7848C60.8186 21.8485 60.8026 21.8963 60.7867 21.9282C60.7547 21.9601 60.7228 21.9919 60.6908 22.0079C60.6429 22.0238 60.595 22.0397 60.5471 22.0397Z" fill="#061B2D"/>
</g>
<defs>
<clipPath id="clip0_56813_1249">
<rect width="62" height="24" fill="white"/>
</clipPath>
</defs>
</svg>