<svg width="56" height="56" viewBox="0 0 56 56" fill="none" xmlns="http://www.w3.org/2000/svg">
<mask id="mask0_56828_1658" style="mask-type:alpha" maskUnits="userSpaceOnUse" x="0" y="0" width="56" height="56">
<rect width="56" height="56" fill="#D9D9D9"/>
</mask>
<g mask="url(#mask0_56828_1658)">
<path d="M25.8909 23.3333V12.6093C25.8909 12.0077 26.092 11.5059 26.4941 11.1037C26.8966 10.7012 27.3985 10.5 27.9997 10.5H48.057C48.6586 10.5 49.1605 10.7012 49.5626 11.1037C49.9651 11.5059 50.1663 12.0077 50.1663 12.6093V23.3333C50.1663 23.9346 49.9651 24.4364 49.5626 24.8389C49.1605 25.241 48.6586 25.4421 48.057 25.4421H27.9997C27.3985 25.4421 26.8966 25.241 26.4941 24.8389C26.092 24.4364 25.8909 23.9346 25.8909 23.3333ZM5.83301 43.3907V32.6667C5.83301 32.0654 6.03426 31.5636 6.43676 31.1611C6.83887 30.759 7.34073 30.5579 7.94234 30.5579H25.6663C26.2676 30.5579 26.7694 30.759 27.1719 31.1611C27.574 31.5636 27.7751 32.0654 27.7751 32.6667V43.3907C27.7751 43.9923 27.574 44.4941 27.1719 44.8963C26.7694 45.2988 26.2676 45.5 25.6663 45.5H7.94234C7.34073 45.5 6.83887 45.2988 6.43676 44.8963C6.03426 44.4941 5.83301 43.9923 5.83301 43.3907ZM5.83301 23.3333V12.6093C5.83301 12.0077 6.03426 11.5059 6.43676 11.1037C6.83887 10.7012 7.34073 10.5 7.94234 10.5H18.6663C19.2676 10.5 19.7694 10.7012 20.1719 11.1037C20.574 11.5059 20.7751 12.0077 20.7751 12.6093V23.3333C20.7751 23.9346 20.574 24.4364 20.1719 24.8389C19.7694 25.241 19.2676 25.4421 18.6663 25.4421H7.94234C7.34073 25.4421 6.83887 25.241 6.43676 24.8389C6.03426 24.4364 5.83301 23.9346 5.83301 23.3333ZM29.3903 21.9427H46.6663V14H29.3903V21.9427ZM9.33301 42H24.2757V34.0573H9.33301V42ZM9.33301 21.9427H17.2757V14H9.33301V21.9427ZM35.6816 45.4014L34.2816 45.8815C33.8958 46.0071 33.5198 46.0026 33.1534 45.8681C32.7867 45.7331 32.4972 45.5043 32.2848 45.1815L31.9751 44.6116C31.7628 44.2495 31.6805 43.8674 31.7283 43.4653C31.7762 43.0628 31.9693 42.7239 32.3076 42.4486L33.3663 41.5421C33.1987 40.8872 33.1149 40.2321 33.1149 39.5768C33.1149 38.9216 33.1987 38.2665 33.3663 37.6116L32.3076 36.7051C31.9844 36.4449 31.7913 36.1159 31.7283 35.7181C31.6657 35.3202 31.7406 34.9403 31.9529 34.5782L32.3432 33.9727C32.5555 33.6496 32.8353 33.4207 33.1826 33.2862C33.5295 33.1516 33.8958 33.1471 34.2816 33.2728L35.6816 33.7528C36.1393 33.3068 36.6359 32.9471 37.1714 32.6737C37.7069 32.3999 38.2753 32.1732 38.8765 31.9935L39.1145 30.6162C39.2012 30.2064 39.4002 29.8698 39.7113 29.6065C40.0224 29.3432 40.3829 29.2116 40.7928 29.2116H41.4117C41.8216 29.2116 42.1821 29.3492 42.4932 29.6246C42.8043 29.8995 43.0032 30.2419 43.0899 30.6518L43.3279 31.9935C43.9291 32.1732 44.4975 32.3999 45.033 32.6737C45.5685 32.9471 46.0651 33.3068 46.5228 33.7528L47.9228 33.2728C48.3086 33.1471 48.6847 33.1516 49.051 33.2862C49.4177 33.4207 49.7073 33.6496 49.9196 33.9727L50.2288 34.5421C50.4415 34.9041 50.5237 35.2864 50.4755 35.6889C50.4277 36.091 50.2348 36.4297 49.8968 36.7051L48.8381 37.6116C49.0057 38.2665 49.0895 38.9216 49.0895 39.5768C49.0895 40.2321 49.0057 40.8872 48.8381 41.5421L49.8968 42.4486C50.22 42.7087 50.4129 43.0379 50.4755 43.4362C50.5385 43.834 50.4638 44.2138 50.2515 44.5754L49.8613 45.1815C49.6489 45.5043 49.3691 45.7331 49.0218 45.8681C48.675 46.0026 48.3086 46.0071 47.9228 45.8815L46.5228 45.4014C46.05 45.8471 45.5496 46.2068 45.0219 46.4806C44.4938 46.7544 43.9291 46.9809 43.3279 47.1602L43.0899 48.538C43.0032 48.9475 42.8043 49.2839 42.4932 49.5472C42.1821 49.8104 41.8216 49.9421 41.4117 49.9421H40.7928C40.3829 49.9421 40.0224 49.8046 39.7113 49.5297C39.4002 49.2543 39.2012 48.9117 39.1145 48.5018L38.8765 47.1602C38.2753 46.9809 37.7106 46.7544 37.1825 46.4806C36.6548 46.2068 36.1545 45.8471 35.6816 45.4014ZM41.1019 44.4232C42.4451 44.4232 43.5887 43.9512 44.5325 43.0074C45.4763 42.0636 45.9483 40.9201 45.9483 39.5768C45.9483 38.2336 45.4763 37.0901 44.5325 36.1462C43.5887 35.2024 42.4451 34.7305 41.1019 34.7305C39.7591 34.7305 38.6158 35.2024 37.6719 36.1462C36.7281 37.0901 36.2562 38.2336 36.2562 39.5768C36.2562 40.9201 36.7281 42.0636 37.6719 43.0074C38.6158 43.9512 39.7591 44.4232 41.1019 44.4232Z" fill="url(#paint0_linear_56828_1658)"/>
</g>
<defs>
<linearGradient id="paint0_linear_56828_1658" x1="5.83301" y1="11.033" x2="55.798" y2="19.6156" gradientUnits="userSpaceOnUse">
<stop stop-color="#B2E6D6"/>
<stop offset="1" stop-color="#8CC7FF"/>
</linearGradient>
</defs>
</svg>