<svg width="56" height="56" viewBox="0 0 56 56" fill="none" xmlns="http://www.w3.org/2000/svg">
<mask id="mask0_56828_1678" style="mask-type:alpha" maskUnits="userSpaceOnUse" x="0" y="0" width="56" height="56">
<rect width="56" height="56" fill="#D9D9D9"/>
</mask>
<g mask="url(#mask0_56828_1678)">
<path d="M14.0026 53.0835C12.2207 53.0835 10.7054 52.4599 9.45667 51.2127C8.20756 49.9656 7.58301 48.4512 7.58301 46.6697C7.58301 44.8879 8.20698 43.3725 9.45492 42.1238C10.7025 40.8747 12.2176 40.2502 14.0003 40.2502C14.4996 40.2502 14.99 40.3122 15.4714 40.4362C15.9533 40.5607 16.4081 40.7275 16.8358 40.9367L21.4617 35.1798C20.4926 34.1236 19.8241 32.942 19.4562 31.6349C19.0883 30.3275 19.0134 29.0126 19.2316 27.6904L12.5098 25.465C11.9234 26.4073 11.1524 27.1625 10.1969 27.7307C9.24142 28.2992 8.17567 28.5835 6.99967 28.5835C5.2174 28.5835 3.70229 27.9599 2.45434 26.7127C1.20679 25.4656 0.583008 23.9512 0.583008 22.1697C0.583008 20.3879 1.20659 18.8726 2.45376 17.6238C3.70092 16.3747 5.21526 15.7502 6.99676 15.7502C8.77865 15.7502 10.294 16.3739 11.5427 17.6215C12.7918 18.8694 13.4163 20.3846 13.4163 22.1668C13.4163 22.3045 13.4126 22.4196 13.4053 22.5122C13.3975 22.6051 13.3936 22.6979 13.3936 22.7904L20.0932 25.1197C20.7364 23.9289 21.6198 22.9073 22.7433 22.0548C23.8664 21.2024 25.1548 20.655 26.6084 20.4127V13.2506C25.1069 12.8979 23.894 12.1387 22.9696 10.9732C22.0452 9.80813 21.583 8.48066 21.583 6.99083C21.583 5.21711 22.2066 3.70588 23.4538 2.45716C24.7009 1.20805 26.2153 0.583496 27.9968 0.583496C29.7786 0.583496 31.294 1.20727 32.5427 2.45483C33.7918 3.70278 34.4163 5.21789 34.4163 7.00016C34.4163 8.48377 33.9481 9.80813 33.0117 10.9732C32.0756 12.1387 30.8687 12.8979 29.3909 13.2506V20.4127C30.8446 20.655 32.1293 21.2024 33.245 22.0548C34.3607 22.9073 35.2478 23.9289 35.9062 25.1197L42.6058 22.7904C42.5906 22.6827 42.583 22.5862 42.583 22.5011V22.1668C42.583 20.3846 43.2066 18.8694 44.4538 17.6215C45.7009 16.3739 47.2153 15.7502 48.9968 15.7502C50.7786 15.7502 52.294 16.3737 53.5427 17.6209C54.7918 18.8681 55.4163 20.3824 55.4163 22.1639C55.4163 23.9458 54.7926 25.4611 53.545 26.7098C52.2971 27.9589 50.782 28.5835 48.9997 28.5835C47.8283 28.5835 46.7577 28.2992 45.7878 27.7307C44.818 27.1625 44.0518 26.4073 43.4895 25.465L36.7678 27.6904C36.9859 29.0126 36.9111 30.3214 36.5432 31.6168C36.1753 32.9122 35.5068 34.0923 34.5377 35.1571L39.1635 40.8784C39.5913 40.684 40.0461 40.5307 40.5279 40.4187C41.0094 40.3064 41.4998 40.2502 41.9991 40.2502C43.7818 40.2502 45.2969 40.8737 46.5444 42.1209C47.7924 43.3681 48.4163 44.8824 48.4163 46.6639C48.4163 48.4458 47.7928 49.9611 46.5456 51.2098C45.2984 52.4589 43.7841 53.0835 42.0026 53.0835C40.2207 53.0835 38.7054 52.4597 37.4567 51.2122C36.2076 49.9642 35.583 48.4491 35.583 46.6668C35.583 45.931 35.702 45.2229 35.94 44.5423C36.1776 43.8618 36.5329 43.2372 37.0058 42.6687L32.3793 36.8668C31.054 37.6567 29.5918 38.0516 27.9927 38.0516C26.394 38.0516 24.9245 37.6567 23.5844 36.8668L18.9936 42.6687C19.4513 43.2372 19.8029 43.8618 20.0483 44.5423C20.2936 45.2229 20.4163 45.931 20.4163 46.6668C20.4163 48.4491 19.7928 49.9642 18.5456 51.2122C17.2984 52.4597 15.7841 53.0835 14.0026 53.0835ZM6.99967 25.0835C7.81051 25.0835 8.49923 24.8 9.06584 24.233C9.63284 23.6664 9.91634 22.9777 9.91634 22.1668C9.91634 21.356 9.63284 20.6673 9.06584 20.1007C8.49923 19.5337 7.81051 19.2502 6.99967 19.2502C6.18884 19.2502 5.50012 19.5337 4.93351 20.1007C4.36651 20.6673 4.08301 21.356 4.08301 22.1668C4.08301 22.9777 4.36651 23.6664 4.93351 24.233C5.50012 24.8 6.18884 25.0835 6.99967 25.0835ZM13.9997 49.5835C14.8105 49.5835 15.4992 49.3 16.0658 48.733C16.6328 48.1664 16.9163 47.4777 16.9163 46.6668C16.9163 45.856 16.6328 45.1673 16.0658 44.6007C15.4992 44.0337 14.8105 43.7502 13.9997 43.7502C13.1888 43.7502 12.5001 44.0337 11.9335 44.6007C11.3665 45.1673 11.083 45.856 11.083 46.6668C11.083 47.4777 11.3665 48.1664 11.9335 48.733C12.5001 49.3 13.1888 49.5835 13.9997 49.5835ZM27.9997 9.91683C28.8105 9.91683 29.4992 9.63333 30.0658 9.06633C30.6328 8.49972 30.9163 7.811 30.9163 7.00016C30.9163 6.18933 30.6328 5.50061 30.0658 4.934C29.4992 4.367 28.8105 4.0835 27.9997 4.0835C27.1888 4.0835 26.5001 4.367 25.9335 4.934C25.3665 5.50061 25.083 6.18933 25.083 7.00016C25.083 7.811 25.3665 8.49972 25.9335 9.06633C26.5001 9.63333 27.1888 9.91683 27.9997 9.91683ZM27.9997 34.5516C29.4985 34.5516 30.7705 34.0287 31.8158 32.983C32.8616 31.9377 33.3844 30.6656 33.3844 29.1668C33.3844 27.6681 32.8616 26.396 31.8158 25.3507C30.7705 24.3049 29.4985 23.7821 27.9997 23.7821C26.5009 23.7821 25.2288 24.3049 24.1835 25.3507C23.1378 26.396 22.6149 27.6681 22.6149 29.1668C22.6149 30.6656 23.1378 31.9377 24.1835 32.983C25.2288 34.0287 26.5009 34.5516 27.9997 34.5516ZM41.9997 49.5835C42.8105 49.5835 43.4992 49.3 44.0658 48.733C44.6328 48.1664 44.9163 47.4777 44.9163 46.6668C44.9163 45.856 44.6328 45.1673 44.0658 44.6007C43.4992 44.0337 42.8105 43.7502 41.9997 43.7502C41.1888 43.7502 40.5001 44.0337 39.9335 44.6007C39.3665 45.1673 39.083 45.856 39.083 46.6668C39.083 47.4777 39.3665 48.1664 39.9335 48.733C40.5001 49.3 41.1888 49.5835 41.9997 49.5835ZM48.9997 25.0835C49.8105 25.0835 50.4992 24.8 51.0658 24.233C51.6328 23.6664 51.9163 22.9777 51.9163 22.1668C51.9163 21.356 51.6328 20.6673 51.0658 20.1007C50.4992 19.5337 49.8105 19.2502 48.9997 19.2502C48.1888 19.2502 47.5001 19.5337 46.9335 20.1007C46.3665 20.6673 46.083 21.356 46.083 22.1668C46.083 22.9777 46.3665 23.6664 46.9335 24.233C47.5001 24.8 48.1888 25.0835 48.9997 25.0835Z" fill="url(#paint0_linear_56828_1678)"/>
</g>
<defs>
<linearGradient id="paint0_linear_56828_1678" x1="0.583008" y1="1.29296" x2="62.1877" y2="11.0531" gradientUnits="userSpaceOnUse">
<stop stop-color="#B2E6D6"/>
<stop offset="1" stop-color="#8CC7FF"/>
</linearGradient>
</defs>
</svg>