<svg width="56" height="56" viewBox="0 0 56 56" fill="none" xmlns="http://www.w3.org/2000/svg">
<mask id="mask0_56828_1700" style="mask-type:alpha" maskUnits="userSpaceOnUse" x="0" y="0" width="56" height="56">
<rect width="56" height="56" fill="#D9D9D9"/>
</mask>
<g mask="url(#mask0_56828_1700)">
<path d="M17.0382 27.6501C17.6725 26.382 18.3485 25.1599 19.0664 23.9839C19.7843 22.8083 20.5755 21.6476 21.44 20.502L18.0164 19.8154C17.8967 19.7854 17.7808 19.7891 17.6688 19.8265C17.5564 19.8642 17.4553 19.9278 17.3654 20.0172L12.0839 25.2987C12.0392 25.3438 12.0242 25.3963 12.039 25.4562C12.0542 25.5157 12.0917 25.5604 12.1516 25.5904L17.0382 27.6501ZM44.4589 10.9131C41.3031 11.0808 38.269 11.8743 35.3566 13.2937C32.4446 14.7132 29.7547 16.6568 27.2868 19.1247C25.6083 20.8028 24.1274 22.5751 22.8441 24.4418C21.5608 26.3085 20.5557 28.1108 19.8289 29.8487L26.4567 36.4404C28.1946 35.7136 30.0006 34.7085 31.8747 33.4251C33.7487 32.1418 35.525 30.6611 37.2034 28.9831C39.6713 26.5152 41.615 23.8347 43.0344 20.9418C44.4539 18.0493 45.2474 15.0249 45.415 11.8686C45.415 11.743 45.3969 11.6211 45.3608 11.5029C45.325 11.3847 45.2564 11.2748 45.1549 11.1733C45.053 11.0714 44.9429 11.0026 44.8247 10.9668C44.7065 10.931 44.5845 10.9131 44.4589 10.9131ZM31.8053 24.4867C31.0154 23.6969 30.6205 22.7367 30.6205 21.6062C30.6205 20.4753 31.0154 19.515 31.8053 18.7251C32.5951 17.9353 33.5613 17.5404 34.7038 17.5404C35.8468 17.5404 36.813 17.9353 37.6024 18.7251C38.3923 19.515 38.7872 20.4753 38.7872 21.6062C38.7872 22.7367 38.3923 23.6969 37.6024 24.4867C36.813 25.2766 35.8468 25.6715 34.7038 25.6715C33.5613 25.6715 32.5951 25.2766 31.8053 24.4867ZM28.6553 39.2538L30.715 44.1766C30.745 44.2364 30.7897 44.2701 30.8492 44.2775C30.9091 44.2849 30.9616 44.2662 31.0067 44.2215L36.2882 38.9621C36.3776 38.8723 36.4412 38.7714 36.4789 38.6594C36.5163 38.547 36.52 38.4311 36.49 38.3117L35.8034 34.8881C34.6578 35.7526 33.4971 36.5378 32.3215 37.2436C31.1455 37.9495 29.9234 38.6195 28.6553 39.2538ZM48.7488 9.80947C48.8954 13.8928 48.1767 17.7718 46.5928 21.4464C45.0088 25.1214 42.5715 28.6043 39.2807 31.8951C39.206 31.9697 39.135 32.037 39.0678 32.0969C39.0005 32.1568 38.9295 32.2241 38.8549 32.2987L39.9317 37.6024C40.0721 38.3055 40.0369 38.9892 39.8261 39.6534C39.6153 40.3172 39.2601 40.899 38.7604 41.3987L31.8368 48.3223C31.3133 48.8458 30.6806 49.0433 29.9386 48.915C29.1966 48.7863 28.685 48.3703 28.4039 47.6672L25.227 40.2006L16.1049 31.0556L8.63819 27.8788C7.93507 27.5976 7.51702 27.0862 7.38402 26.3446C7.25102 25.6026 7.44624 24.9699 7.96968 24.4465L14.8933 17.5229C15.393 17.0232 15.9808 16.6716 16.6567 16.4682C17.3326 16.2648 18.0221 16.2333 18.7252 16.3737L24.0289 17.4511C24.1039 17.3761 24.1675 17.3086 24.2196 17.2487C24.2721 17.1892 24.3357 17.1219 24.4104 17.0469C27.7011 13.7565 31.184 11.3154 34.859 9.72372C38.534 8.13239 42.4132 7.41003 46.4965 7.55664C46.7777 7.58075 47.055 7.64958 47.3284 7.76314C47.6021 7.8767 47.8483 8.04275 48.0668 8.26131C48.285 8.47947 48.4472 8.72175 48.5534 8.98814C48.6595 9.25414 48.7247 9.52792 48.7488 9.80947ZM10.5498 37.4997C11.6865 36.363 13.0723 35.7923 14.7072 35.7876C16.3417 35.7834 17.7273 36.3496 18.864 37.4863C20.0007 38.623 20.5633 40.0086 20.5516 41.6431C20.5395 43.278 19.9652 44.6638 18.8284 45.8006C17.246 47.3829 15.3794 48.3454 13.2284 48.6881C11.0775 49.0307 8.91313 49.3321 6.73535 49.5922C6.99591 47.3997 7.30119 45.2316 7.65119 43.0881C8.00119 40.9449 8.96738 39.0821 10.5498 37.4997ZM13.0447 39.9806C12.3684 40.6569 11.9002 41.4617 11.64 42.3951C11.3799 43.3284 11.1794 44.2886 11.0386 45.2756C12.026 45.1352 12.9864 44.937 13.9197 44.6811C14.853 44.4252 15.6576 43.9594 16.3335 43.2835C16.8002 42.8168 17.0456 42.2566 17.0697 41.6029C17.0934 40.9492 16.8719 40.389 16.4053 39.9223C15.9386 39.4556 15.3784 39.232 14.7247 39.2515C14.0714 39.2709 13.5114 39.514 13.0447 39.9806Z" fill="url(#paint0_linear_56828_1700)"/>
</g>
<defs>
<linearGradient id="paint0_linear_56828_1700" x1="6.73535" y1="8.10638" x2="54.0555" y2="15.2806" gradientUnits="userSpaceOnUse">
<stop stop-color="#B2E6D6"/>
<stop offset="1" stop-color="#8CC7FF"/>
</linearGradient>
</defs>
</svg>