<svg width="56" height="56" viewBox="0 0 56 56" fill="none" xmlns="http://www.w3.org/2000/svg">
<mask id="mask0_56828_1720" style="mask-type:alpha" maskUnits="userSpaceOnUse" x="0" y="0" width="56" height="56">
<rect width="56" height="56" fill="#D9D9D9"/>
</mask>
<g mask="url(#mask0_56828_1720)">
<path d="M12.5819 37.9166L18.8329 8.99667C18.9344 8.55683 19.1444 8.21131 19.4629 7.96009C19.7818 7.70886 20.161 7.58325 20.6004 7.58325H21.3902C21.8301 7.58325 22.2092 7.71489 22.5278 7.97817C22.8463 8.24145 23.0564 8.593 23.1583 9.03283L30.45 43.0143L35.0852 22.9967C35.1871 22.5809 35.4046 22.2414 35.7379 21.9782C36.0716 21.7149 36.4583 21.5833 36.8982 21.5833H37.8047C38.2441 21.5833 38.6209 21.7089 38.9352 21.9601C39.2494 22.2113 39.4572 22.545 39.5588 22.9611L43.4181 37.9166H49C49.4966 37.9166 49.9123 38.0842 50.2472 38.4194C50.5824 38.7543 50.75 39.17 50.75 39.6666C50.75 40.1632 50.5824 40.5789 50.2472 40.9138C49.9123 41.249 49.4966 41.4166 49 41.4166H42.3278C41.8281 41.4166 41.3927 41.2723 41.0217 40.9838C40.6507 40.6948 40.4024 40.3081 40.2768 39.8235L37.4051 28.5203L32.5588 49.3587C32.4573 49.7837 32.2472 50.1219 31.9287 50.3731C31.6099 50.6243 31.2307 50.7499 30.7912 50.7499H30.0014C29.5616 50.7499 29.1764 50.6183 28.8458 50.355C28.5153 50.0917 28.2992 49.7402 28.1978 49.3003L20.9778 15.6782L15.7587 39.7652C15.6572 40.2649 15.415 40.6651 15.0319 40.9657C14.6493 41.2663 14.2081 41.4166 13.7083 41.4166H7C6.50339 41.4166 6.08767 41.249 5.75283 40.9138C5.41761 40.5789 5.25 40.1632 5.25 39.6666C5.25 39.17 5.41761 38.7543 5.75283 38.4194C6.08767 38.0842 6.50339 37.9166 7 37.9166H12.5819Z" fill="url(#paint0_linear_56828_1720)"/>
</g>
<defs>
<linearGradient id="paint0_linear_56828_1720" x1="5.25" y1="8.16659" x2="56.3456" y2="16.3362" gradientUnits="userSpaceOnUse">
<stop stop-color="#B2E6D6"/>
<stop offset="1" stop-color="#8CC7FF"/>
</linearGradient>
</defs>
</svg>
