<svg width="82" height="28" viewBox="0 0 82 28" fill="none" xmlns="http://www.w3.org/2000/svg">
<path d="M19.0441 14.8768C19.0098 11.3309 21.939 9.63506 22.0674 9.54941C20.423 7.14269 17.8621 6.80866 16.9457 6.7744C14.7702 6.55172 12.6975 8.05913 11.5841 8.05913C10.4707 8.05913 8.77484 6.80866 6.96766 6.84292C4.58664 6.87718 2.39405 8.22186 1.16928 10.3545C-1.29738 14.6284 0.544051 20.9835 2.95076 24.4523C4.13271 26.1481 5.52877 28.0666 7.37021 27.9981C9.14313 27.9296 9.81118 26.8504 11.9524 26.8504C14.0936 26.8504 14.7017 27.9981 16.5688 27.9639C18.4788 27.9296 19.6864 26.2252 20.8512 24.5208C22.1959 22.5423 22.7526 20.6409 22.7869 20.5381C22.7612 20.5124 19.0869 19.1078 19.0441 14.8768Z" fill="#061B2D"/>
<path d="M15.5236 4.47085C16.5 3.2889 17.1595 1.64445 16.9796 0C15.575 0.059954 13.862 0.942133 12.86 2.12408C11.9521 3.169 11.1641 4.84771 11.3782 6.4579C12.937 6.56924 14.5472 5.6528 15.5236 4.47085ZM31.3942 18.3545L29.7755 23.2707H27.6942L32.9958 7.65698H35.4282L40.7556 23.2707H38.5972L36.9271 18.3545H31.3942ZM36.516 16.7786L34.9829 12.282C34.6317 11.2628 34.409 10.3378 34.1692 9.42991H34.1264C33.8951 10.3549 33.6382 11.3056 33.3384 12.2563L31.8139 16.77L36.516 16.7786ZM42.3315 15.7165C42.3315 14.2776 42.2887 13.1214 42.2373 12.0593H44.0701L44.1644 13.9864H44.2072C45.038 12.616 46.3655 11.8109 48.1898 11.8109C50.9049 11.8109 52.9347 14.1063 52.9347 17.5151C52.9347 21.5492 50.4766 23.5362 47.8387 23.5362C46.357 23.5362 45.0551 22.8853 44.3871 21.7804H44.3528V27.87H42.3401V15.7165H42.3315ZM44.3442 18.7056C44.3442 19.0054 44.387 19.2795 44.4384 19.5364C44.8067 20.9496 46.0401 21.926 47.4961 21.926C49.6544 21.926 50.9049 20.1702 50.9049 17.5922C50.9049 15.3397 49.7229 13.4211 47.5646 13.4211C46.1771 13.4211 44.8838 14.4147 44.4813 15.9478C44.4127 16.2047 44.3442 16.5045 44.3442 16.7786V18.7056ZM55.0502 15.7165C55.0502 14.2776 55.0074 13.1214 54.956 12.0593H56.7889L56.8831 13.9864H56.9259C57.7567 12.616 59.0843 11.8109 60.9086 11.8109C63.6236 11.8109 65.6535 14.1063 65.6535 17.5151C65.6535 21.5492 63.1954 23.5362 60.5574 23.5362C59.0757 23.5362 57.7739 22.8853 57.1058 21.7804H57.063V27.87H55.0502V15.7165ZM57.063 18.7056C57.063 19.0054 57.1058 19.2795 57.1572 19.5364C57.5255 20.9496 58.7588 21.926 60.2148 21.926C62.3732 21.926 63.6236 20.1702 63.6236 17.5922C63.6236 15.3397 62.4417 13.4211 60.2833 13.4211C58.8958 13.4211 57.6026 14.4147 57.2 15.9478C57.1315 16.2047 57.063 16.5045 57.063 16.7786V18.7056ZM67.769 6.81763H69.8074V23.2622H67.769V6.81763ZM73.91 18.029C73.9528 20.7869 75.7171 21.926 77.7556 21.926C79.2116 21.926 80.0938 21.6691 80.856 21.3522L81.2072 22.8082C80.4877 23.1337 79.263 23.502 77.4815 23.502C74.0299 23.502 71.9658 21.2323 71.9658 17.8492C71.9658 14.466 73.9614 11.8024 77.2245 11.8024C80.8817 11.8024 81.8581 15.0228 81.8581 17.0869C81.8581 17.5066 81.8153 17.8235 81.7896 18.0376L73.91 18.029ZM79.8882 16.573C79.9139 15.2797 79.3572 13.2584 77.0618 13.2584C74.9977 13.2584 74.0984 15.1598 73.9357 16.573H79.8882Z" fill="#061B2D"/>
</svg>