<svg width="63" height="22" viewBox="0 0 63 22" fill="none" xmlns="http://www.w3.org/2000/svg">
<g clip-path="url(#clip0_56813_1253)">
<path d="M3.6246 15.7121C3.89083 16.4228 4.25942 17.0305 4.73044 17.5351C5.20146 18.0399 5.75948 18.4261 6.40449 18.6939C7.04958 18.9617 7.75094 19.0956 8.50865 19.0956C9.2459 19.0956 9.937 18.9565 10.5821 18.6784C11.2272 18.4002 11.7903 18.0089 12.2715 17.5042C12.7527 16.9995 13.1265 16.3971 13.3927 15.6967C13.6589 14.9963 13.792 14.2136 13.792 13.3483V0H17.0173V21.6292H13.8227V19.6208C13.106 20.3829 12.2612 20.97 11.2885 21.3821C10.3158 21.794 9.26636 22 8.14006 22C6.99323 22 5.92328 21.7991 4.93006 21.3974C3.93691 20.9958 3.07678 20.4242 2.34986 19.6826C1.62294 18.941 1.04949 18.0502 0.629724 17.0099C0.209885 15.9696 0 14.8109 0 13.5337V0H3.22529V13.3483C3.22529 14.2136 3.35837 15.0014 3.6246 15.7121Z" fill="#061B2D"/>
<path d="M22.577 0V7.8792C23.2937 7.15824 24.1231 6.58666 25.0651 6.16434C26.0071 5.74201 27.031 5.53089 28.1368 5.53089C29.2836 5.53089 30.3586 5.74714 31.3621 6.17972C32.3655 6.6123 33.2358 7.1994 33.973 7.94101C34.7103 8.68262 35.2939 9.55803 35.7239 10.5674C36.154 11.5768 36.369 12.648 36.369 13.7809C36.369 14.9138 36.154 15.9799 35.7239 16.9789C35.2939 17.978 34.7103 18.8483 33.973 19.5898C33.2358 20.3314 32.3655 20.9185 31.3621 21.3511C30.3586 21.7837 29.2836 21.9999 28.1368 21.9999C27.031 21.9999 26.002 21.7888 25.0498 21.3665C24.0975 20.9442 23.263 20.3726 22.5463 19.6516V21.6292H19.4746V0H22.577ZM22.9302 15.9129C23.2067 16.5721 23.5907 17.1489 24.0822 17.6433C24.5736 18.1377 25.147 18.5291 25.8023 18.8175C26.4576 19.1059 27.1641 19.2501 27.9218 19.2501C28.6591 19.2501 29.3553 19.1059 30.0105 18.8175C30.6658 18.5291 31.234 18.1378 31.7154 17.6433C32.1966 17.149 32.5805 16.5721 32.8672 15.9129C33.1539 15.2538 33.2973 14.5431 33.2973 13.7809C33.2973 13.0187 33.1539 12.3029 32.8672 11.6334C32.5805 10.9639 32.1966 10.382 31.7154 9.88765C31.2341 9.39333 30.6659 9.00704 30.0105 8.72898C29.3552 8.45091 28.659 8.31178 27.9218 8.31178C27.1846 8.31178 26.4884 8.45085 25.8331 8.72898C25.1778 9.00711 24.6044 9.39333 24.1129 9.88765C23.6215 10.382 23.2324 10.9639 22.9457 11.6334C22.659 12.3029 22.5156 13.0187 22.5156 13.7809C22.5156 14.5431 22.6538 15.2538 22.9302 15.9129Z" fill="#061B2D"/>
<path d="M38.1191 10.5984C38.5286 9.60967 39.0919 8.73939 39.8085 7.98752C40.5252 7.23565 41.3751 6.64343 42.3581 6.21085C43.341 5.77827 44.4059 5.56201 45.5526 5.56201C46.6789 5.56201 47.7233 5.76801 48.6858 6.17994C49.6483 6.59194 50.4776 7.16359 51.1739 7.89488C51.8701 8.6261 52.4129 9.49132 52.8018 10.4904C53.191 11.4894 53.3855 12.5761 53.3855 13.7502V14.7699H40.6379C40.7404 15.4085 40.9452 16.0007 41.2523 16.5465C41.5595 17.0924 41.9434 17.5662 42.4042 17.9679C42.8649 18.3696 43.3871 18.6838 43.9708 18.9103C44.5544 19.1369 45.1738 19.2502 45.8291 19.2502C47.6927 19.2502 49.1978 18.4777 50.3446 16.9328L52.5869 18.6013C51.8088 19.6518 50.8463 20.4758 49.6996 21.0732C48.5528 21.6705 47.2626 21.9692 45.8292 21.9692C44.6619 21.9692 43.5715 21.7632 42.5578 21.3513C41.5442 20.9393 40.6636 20.3625 39.9162 19.6209C39.1687 18.8793 38.58 18.009 38.15 17.0099C37.7199 16.0109 37.5049 14.9242 37.5049 13.7501C37.5047 12.6378 37.7096 11.5872 38.1191 10.5984ZM42.4349 9.3779C41.5645 10.1092 40.9861 11.0825 40.6994 12.2979H50.2524C49.9862 11.0825 49.4179 10.1092 48.5476 9.3779C47.6773 8.64668 46.6585 8.28103 45.4913 8.28103C44.324 8.28103 43.3052 8.64668 42.4349 9.3779Z" fill="#061B2D"/>
<path d="M59.1909 9.73306C58.5356 10.454 58.2079 11.4325 58.2079 12.6685V21.6292H55.1055V5.87075H58.1771V7.81739C58.5663 7.17881 59.0731 6.6741 59.6977 6.30333C60.3222 5.93249 61.0646 5.74707 61.9247 5.74707H62.9998V8.65158H61.7097C60.6858 8.65165 59.8462 9.01209 59.1909 9.73306Z" fill="#061B2D"/>
</g>
<defs>
<clipPath id="clip0_56813_1253">
<rect width="63" height="22" fill="white"/>
</clipPath>
</defs>
</svg>